<svg width="850" height="350" viewBox="0 0 850 350" xmlns="http://www.w3.org/2000/svg">
  <defs>
    <filter id="shadow" x="-20%" y="-20%" width="140%" height="140%">
      <feDropShadow dx="2" dy="2" stdDeviation="3" flood-color="#000000" flood-opacity="0.1"/>
    </filter>
  </defs>

  <!-- Background -->
  <rect width="100%" height="100%" fill="#ffffff" rx="10"/>

  <!-- Title -->
  <text x="425" y="45" text-anchor="middle" font-family="sans-serif" font-size="24" font-weight="bold" fill="#1e293b">高 NRR（净收入留存率）的驱动因素</text>

  <!-- Product Factors -->
  <g transform="translate(50, 80)">
    <rect x="0" y="0" width="240" height="230" rx="12" fill="#EFF6FF" stroke="#3B82F6" stroke-width="1.5" filter="url(#shadow)"/>
    <text x="120" y="35" text-anchor="middle" font-family="sans-serif" font-size="18" font-weight="bold" fill="#1D4ED8">产品驱动力</text>
    <line x1="40" y1="50" x2="200" y2="50" stroke="#3B82F6" stroke-width="1"/>
    <g transform="translate(25, 85)" font-family="sans-serif" font-size="14" fill="#1E40AF">
      <text x="0" y="0">• 自然扩展路径 (用户/数据)</text>
      <text x="0" y="35">• 计费项与价值深度挂钩</text>
      <text x="0" y="70">• 高粘性/高切换成本</text>
      <text x="0" y="105">• 模块化架构支持 Cross-Sell</text>
    </g>
  </g>

  <!-- CS Factors -->
  <g transform="translate(305, 80)">
    <rect x="0" y="0" width="240" height="230" rx="12" fill="#ECFDF5" stroke="#10B981" stroke-width="1.5" filter="url(#shadow)"/>
    <text x="120" y="35" text-anchor="middle" font-family="sans-serif" font-size="18" font-weight="bold" fill="#065F46">客户成功驱动力</text>
    <line x1="40" y1="50" x2="200" y2="50" stroke="#10B981" stroke-width="1"/>
    <g transform="translate(25, 85)" font-family="sans-serif" font-size="14" fill="#064E3B">
      <text x="0" y="0">• 主动健康检查机制</text>
      <text x="0" y="35">• 快速识别流失风险信号</text>
      <text x="0" y="70">• 制定清晰的价值实现计划</text>
      <text x="0" y="105">• 用户教育与深度运营</text>
    </g>
  </g>

  <!-- Sales Factors -->
  <g transform="translate(560, 80)">
    <rect x="0" y="0" width="240" height="230" rx="12" fill="#FFFBEB" stroke="#F59E0B" stroke-width="1.5" filter="url(#shadow)"/>
    <text x="120" y="35" text-anchor="middle" font-family="sans-serif" font-size="18" font-weight="bold" fill="#B45309">销售驱动力</text>
    <line x1="40" y1="50" x2="200" y2="50" stroke="#F59E0B" stroke-width="1"/>
    <g transform="translate(25, 85)" font-family="sans-serif" font-size="14" fill="#92400E">
      <text x="0" y="0">• 专职 Expansion 销售团队</text>
      <text x="0" y="35">• 明确的客户增长 Playbook</text>
      <text x="0" y="70">• 销售与 CS 紧密协同</text>
      <text x="0" y="105">• 定期 QBR 发现新机会</text>
    </g>
  </g>
</svg>
