<svg width="800" height="520" xmlns="http://www.w3.org/2000/svg">
  <defs>
    <filter id="shadow" x="-20%" y="-20%" width="140%" height="140%">
      <feDropShadow dx="2" dy="2" stdDeviation="3" flood-color="#000000" flood-opacity="0.1"/>
    </filter>
  </defs>

  <!-- Background -->
  <rect width="100%" height="100%" fill="#ffffff" rx="10"/>

  <!-- Title -->
  <text x="400" y="40" font-family="-apple-system, BlinkMacSystemFont, 'Segoe UI', Roboto, Helvetica, Arial, sans-serif" font-size="24" font-weight="bold" text-anchor="middle" fill="#333">
    中国企业 RevOps 成功关键 (Success Factors)
  </text>

  <!-- Content Group -->
  <g transform="translate(50, 80)">
    
    <!-- Row 1 -->
    <!-- Factor 1 -->
    <g transform="translate(0, 0)">
      <rect x="0" y="0" width="340" height="180" rx="12" fill="#E3F2FD" stroke="#2196F3" stroke-width="1.5" filter="url(#shadow)"/>
      <text x="30" y="40" font-family="sans-serif" font-size="18" font-weight="bold" fill="#1565C0">1. 高管支持是前提</text>
      
      <g transform="translate(30, 70)">
        <text x="0" y="0" font-family="sans-serif" font-size="14" fill="#333">
          <tspan x="0" dy="0">• 必须有跨部门权限背书</tspan>
          <tspan x="0" dy="35">• CEO/COO 直接支持最佳</tspan>
          <tspan x="0" dy="35">• 定期向高管汇报进展</tspan>
        </text>
      </g>
      <circle cx="290" cy="40" r="20" fill="#BBDEFB"/>
      <text x="290" y="46" text-anchor="middle" font-size="20">👑</text>
    </g>

    <!-- Factor 2 -->
    <g transform="translate(360, 0)">
      <rect x="0" y="0" width="340" height="180" rx="12" fill="#E8F5E9" stroke="#4CAF50" stroke-width="1.5" filter="url(#shadow)"/>
      <text x="30" y="40" font-family="sans-serif" font-size="18" font-weight="bold" fill="#2E7D32">2. 从痛点切入，快速见效</text>
      
      <g transform="translate(30, 70)">
        <text x="0" y="0" font-family="sans-serif" font-size="14" fill="#333">
          <tspan x="0" dy="0">• 拒绝"大而全", 追求"小而美"</tspan>
          <tspan x="0" dy="35">• 找到最痛点，快速解决</tspan>
          <tspan x="0" dy="35">• 用小胜利 (Quick Wins) 建立信任</tspan>
        </text>
      </g>
      <circle cx="290" cy="40" r="20" fill="#C8E6C9"/>
      <text x="290" y="46" text-anchor="middle" font-size="20">🚀</text>
    </g>

    <!-- Row 2 -->
    <!-- Factor 3 -->
    <g transform="translate(0, 220)">
      <rect x="0" y="0" width="340" height="180" rx="12" fill="#FFF3E0" stroke="#FF9800" stroke-width="1.5" filter="url(#shadow)"/>
      <text x="30" y="40" font-family="sans-serif" font-size="18" font-weight="bold" fill="#E65100">3. 数据质量优先于分析</text>
      
      <g transform="translate(30, 70)">
        <text x="0" y="0" font-family="sans-serif" font-size="14" fill="#333">
          <tspan x="0" dy="0">• 垃圾进垃圾出，数据质量是基础</tspan>
          <tspan x="0" dy="35">• 先解决数据录入问题，再谈分析</tspan>
          <tspan x="0" dy="35">• 建立数据质量监控机制</tspan>
        </text>
      </g>
      <circle cx="290" cy="40" r="20" fill="#FFE0B2"/>
      <text x="290" y="46" text-anchor="middle" font-size="20">📊</text>
    </g>

    <!-- Factor 4 -->
    <g transform="translate(360, 220)">
      <rect x="0" y="0" width="340" height="180" rx="12" fill="#F3E5F5" stroke="#9C27B0" stroke-width="1.5" filter="url(#shadow)"/>
      <text x="30" y="40" font-family="sans-serif" font-size="18" font-weight="bold" fill="#7B1FA2">4. 工具是手段，不是目的</text>
      
      <g transform="translate(30, 70)">
        <text x="0" y="0" font-family="sans-serif" font-size="14" fill="#333">
          <tspan x="0" dy="0">• 不要为了工具而工具</tspan>
          <tspan x="0" dy="35">• 先跑通流程，再考虑工具升级</tspan>
          <tspan x="0" dy="35">• 能用现有工具解决就不买新的</tspan>
        </text>
      </g>
      <circle cx="290" cy="40" r="20" fill="#E1BEE7"/>
      <text x="290" y="46" text-anchor="middle" font-size="20">🛠️</text>
    </g>

  </g>
</svg>
