<svg width="800" height="420" viewBox="0 0 800 420" xmlns="http://www.w3.org/2000/svg">
  <!-- Background -->
  <rect width="800" height="420" fill="#F8FAFC" rx="16"/>
  
  <!-- Title -->
  <text x="400" y="40" font-family="Outfit, sans-serif" font-size="24" font-weight="600" text-anchor="middle" fill="#1E293B">Notion 模块化架构 (乐高积木哲学)</text>
  
  <!-- Left Side: Basic Blocks -->
  <rect x="50" y="80" width="300" height="300" rx="12" fill="#FFFFFF" stroke="#E2E8F0" stroke-width="1"/>
  <text x="200" y="115" font-family="Outfit, sans-serif" font-size="18" font-weight="600" text-anchor="middle" fill="#475569">基础模块 (Basic Blocks)</text>
  
  <g transform="translate(80, 140)" font-family="Inter, sans-serif" font-size="14" fill="#64748B">
    <rect x="0" y="0" width="110" height="36" rx="18" fill="#F1F5F9" stroke="#CBD5E1"/>
    <text x="55" y="23" text-anchor="middle">文本块</text>
    
    <rect x="130" y="0" width="110" height="36" rx="18" fill="#F1F5F9" stroke="#CBD5E1"/>
    <text x="185" y="23" text-anchor="middle">页面</text>
    
    <rect x="0" y="56" width="110" height="36" rx="18" fill="#F1F5F9" stroke="#CBD5E1"/>
    <text x="55" y="79" text-anchor="middle">数据库</text>
    
    <rect x="130" y="56" width="110" height="36" rx="18" fill="#F1F5F9" stroke="#CBD5E1"/>
    <text x="185" y="79" text-anchor="middle">表格</text>
    
    <rect x="0" y="112" width="110" height="36" rx="18" fill="#F1F5F9" stroke="#CBD5E1"/>
    <text x="55" y="135" text-anchor="middle">看板</text>
    
    <rect x="130" y="112" width="110" height="36" rx="18" fill="#F1F5F9" stroke="#CBD5E1"/>
    <text x="185" y="135" text-anchor="middle">日历</text>
    
    <rect x="65" y="168" width="110" height="36" rx="18" fill="#F1F5F9" stroke="#CBD5E1"/>
    <text x="120" y="191" text-anchor="middle">Gallery</text>
  </g>
  
  <!-- Connector Arrow -->
  <path d="M 370 230 L 430 230" stroke="#CBD5E1" stroke-width="4" fill="none"/>
  <path d="M 430 220 L 440 230 L 430 240" fill="#CBD5E1"/>
  <text x="400" y="215" font-family="Inter, sans-serif" font-size="12" text-anchor="middle" fill="#94A3B8">组合成</text>
  
  <!-- Right Side: Use Cases -->
  <rect x="450" y="80" width="300" height="300" rx="12" fill="#F0F9FF" stroke="#0EA5E9" stroke-width="1"/>
  <text x="600" y="115" font-family="Outfit, sans-serif" font-size="18" font-weight="600" text-anchor="middle" fill="#0369A1">业务场景 (Use Cases)</text>
  
  <g transform="translate(480, 140)" font-family="Inter, sans-serif" font-size="14" fill="#0E7490">
    <rect x="0" y="0" width="110" height="36" rx="8" fill="#E0F2FE" stroke="#7DD3FC"/>
    <text x="55" y="23" text-anchor="middle">个人笔记</text>
    
    <rect x="130" y="0" width="110" height="36" rx="8" fill="#E0F2FE" stroke="#7DD3FC"/>
    <text x="185" y="23" text-anchor="middle">团队 Wiki</text>
    
    <rect x="0" y="56" width="110" height="36" rx="8" fill="#E0F2FE" stroke="#7DD3FC"/>
    <text x="55" y="79" text-anchor="middle">项目管理</text>
    
    <rect x="130" y="56" width="110" height="36" rx="8" fill="#E0F2FE" stroke="#7DD3FC"/>
    <text x="185" y="79" text-anchor="middle">CRM</text>
    
    <rect x="0" y="112" width="110" height="36" rx="8" fill="#E0F2FE" stroke="#7DD3FC"/>
    <text x="55" y="135" text-anchor="middle">知识库</text>
    
    <rect x="130" y="112" width="110" height="36" rx="8" fill="#E0F2FE" stroke="#7DD3FC"/>
    <text x="185" y="135" text-anchor="middle">产品路线图</text>
    
    <text x="120" y="191" text-anchor="middle" font-style="italic" fill="#64748B">以及任何你想要的...</text>
  </g>
</svg>
